<svg width="60" height="60" viewBox="0 0 60 60" fill="none" xmlns="http://www.w3.org/2000/svg">
<path d="M39.7484 45.5491V43.7287H43.0102V45.8183H43.01L43.0103 45.8266C43.0354 46.5802 42.9195 47.331 42.6704 48.0324C42.4214 48.7337 42.0447 49.3696 41.5649 49.9015C41.0852 50.4332 40.5128 50.8494 39.884 51.1256C39.2553 51.4017 38.5828 51.5325 37.9078 51.5105L37.9078 51.5104H37.8997H12.6207H12.5321L12.4633 51.5661L2.77846 59.4117C2.77816 59.4119 2.77785 59.4121 2.77755 59.4124C2.54432 59.5978 2.2731 59.7103 1.99172 59.7413C1.71131 59.7721 1.42765 59.7213 1.16864 59.5925C0.899654 59.4465 0.669342 59.2195 0.505902 58.9336C0.341862 58.6466 0.252642 58.3131 0.25 57.9707V20.7042C0.25 19.1158 0.823429 17.5968 1.83773 16.4803C2.85131 15.3645 4.22059 14.7429 5.64263 14.7429H12.6528V18.3837H5.64263C5.06932 18.3837 4.52496 18.6347 4.12761 19.0721C3.73098 19.5087 3.51176 20.0961 3.51176 20.7042V53.8308V54.3784L3.92552 54.0197L10.2977 48.4951C10.372 48.4359 10.4399 48.3782 10.5062 48.3218C10.6116 48.2322 10.7127 48.1462 10.8283 48.0639C11.01 47.9347 11.1586 47.8695 11.2853 47.8695H37.6176C38.1909 47.8695 38.7352 47.6186 39.1326 47.1812C39.5292 46.7446 39.7484 46.1572 39.7484 45.5491Z" fill="#B80505" stroke="#B80505" stroke-width="0.5"/>
<path d="M60.0001 43.3131V6.21124C60.0009 4.59917 59.4323 3.0499 58.4144 1.89084C57.3966 0.731779 56.0092 0.0537355 54.5455 0M60.0001 43.3131L59.7501 43.3124M60.0001 43.3131C59.9991 43.7033 59.8979 44.0853 59.7082 44.415C59.5185 44.7447 59.2481 45.0086 58.928 45.1764M60.0001 43.3131H59.7501V43.3124M59.7501 43.3124V6.21124V6.21112C59.7509 4.65681 59.2024 3.16702 58.2266 2.0558C57.2524 0.946517 55.9302 0.302298 54.5409 0.25M59.7501 43.3124C59.7492 43.6603 59.6589 43.9994 59.4915 44.2903C59.3248 44.58 59.0895 44.8087 58.815 44.9534M54.5409 0.25H54.5455V0M54.5409 0.25C54.5394 0.249943 54.5379 0.249887 54.5364 0.249832L54.5455 0M54.5409 0.25H22.5706C21.1486 0.25 19.7793 0.871618 18.7657 1.98733C17.7514 3.10385 17.178 4.62289 17.178 6.21124V31.0562C17.178 32.6446 17.7514 34.1636 18.7657 35.2801C19.7793 36.3958 21.1486 37.0175 22.5706 37.0175H48.0565H48.1488L48.2189 37.0774L57.2071 44.7566M54.5455 0H22.5706C21.0741 0 19.6389 0.654397 18.5807 1.81923C17.5225 2.98407 16.928 4.56392 16.928 6.21124V31.0562C16.928 32.7035 17.5225 34.2834 18.5807 35.4482C19.6389 36.6131 21.0741 37.2675 22.5706 37.2675H48.0565L57.0471 44.9487M57.2071 44.7566C57.2064 44.756 57.2056 44.7554 57.2049 44.7548L57.0471 44.9487M57.2071 44.7566C57.4386 44.9444 57.7087 45.0597 57.9897 45.0937C58.2702 45.1277 58.5547 45.0798 58.815 44.9534M57.2071 44.7566L57.2095 44.7586L57.0471 44.9487M57.0471 44.9487C57.3144 45.1662 57.6292 45.3019 57.9596 45.3419C58.29 45.3819 58.6241 45.3248 58.928 45.1764M58.928 45.1764L58.8119 44.955C58.8129 44.9545 58.814 44.9539 58.815 44.9534M58.928 45.1764L58.8183 44.9518C58.8172 44.9523 58.8161 44.9528 58.815 44.9534M56.2635 39.4033L56.6764 39.7578V39.2136V6.33547H56.6765L56.6763 6.32814C56.6584 5.71829 56.4386 5.13307 56.0533 4.68344L55.8635 4.84613L56.0533 4.68344C55.6675 4.23326 55.1409 3.94906 54.5704 3.89207L54.558 3.89083H54.5455H22.5706C21.9973 3.89083 21.4529 4.14174 21.0556 4.57914C20.659 5.01573 20.4397 5.60316 20.4397 6.21124V31.0562C20.4397 31.6643 20.659 32.2517 21.0556 32.6883L21.2406 32.5202L21.0556 32.6883C21.4529 33.1257 21.9973 33.3766 22.5706 33.3766H48.6951C49.0489 33.3778 49.3955 33.5077 49.6806 33.7512C49.6807 33.7513 49.6808 33.7514 49.681 33.7515L56.2635 39.4033Z" fill="#B80505" stroke="#B80505" stroke-width="0.5"/>
</svg>
