<svg width="60" height="60" viewBox="0 0 60 60" fill="none" xmlns="http://www.w3.org/2000/svg">
<path d="M2.95416 11.8246C1.32937 11.8246 0 13.1549 0 14.7808V53.2107C0 56.4625 2.65875 59.123 5.90833 59.123H44.3124C45.9372 59.123 47.2666 57.7928 47.2666 56.1669C47.2666 54.541 45.9372 53.2107 44.3124 53.2107H8.86249C7.2377 53.2107 5.90833 51.8805 5.90833 50.2546V14.7808C5.90833 13.1549 4.57895 11.8246 2.95416 11.8246ZM53.1749 0H17.725C14.4754 0 11.8167 2.66054 11.8167 5.9123V41.3861C11.8167 44.6379 14.4754 47.2984 17.725 47.2984H53.1749C56.4245 47.2984 59.0833 44.6379 59.0833 41.3861V5.9123C59.0833 2.66054 56.4245 0 53.1749 0ZM47.2666 26.6054H23.6333C22.0085 26.6054 20.6791 25.2751 20.6791 23.6492C20.6791 22.0233 22.0085 20.6931 23.6333 20.6931H47.2666C48.8914 20.6931 50.2208 22.0233 50.2208 23.6492C50.2208 25.2751 48.8914 26.6054 47.2666 26.6054ZM35.45 38.43H23.6333C22.0085 38.43 20.6791 37.0997 20.6791 35.4738C20.6791 33.8479 22.0085 32.5177 23.6333 32.5177H35.45C37.0747 32.5177 38.4041 33.8479 38.4041 35.4738C38.4041 37.0997 37.0747 38.43 35.45 38.43ZM47.2666 14.7808H23.6333C22.0085 14.7808 20.6791 13.4505 20.6791 11.8246C20.6791 10.1987 22.0085 8.86846 23.6333 8.86846H47.2666C48.8914 8.86846 50.2208 10.1987 50.2208 11.8246C50.2208 13.4505 48.8914 14.7808 47.2666 14.7808Z" fill="#B80505"/>
</svg>
