<svg width="20" height="19" viewBox="0 0 20 19" fill="none" xmlns="http://www.w3.org/2000/svg">
<path d="M10.1302 6.23944C8.41243 6.23944 7.01062 7.64222 7.01062 9.36115C7.01062 11.0801 8.41243 12.4829 10.1302 12.4829C11.8479 12.4829 13.2497 11.0801 13.2497 9.36115C13.2497 7.64222 11.8479 6.23944 10.1302 6.23944ZM19.4865 9.36115C19.4865 8.06844 19.4982 6.78744 19.4257 5.49707C19.3531 3.99827 19.0114 2.66809 17.9162 1.57209C16.8186 0.473754 15.4917 0.134183 13.9939 0.0615852C12.7021 -0.0110128 11.422 0.000696576 10.1325 0.000696576C8.8407 0.000696576 7.56058 -0.0110128 6.2711 0.0615852C4.77334 0.134183 3.44408 0.476096 2.34884 1.57209C1.25126 2.67043 0.911922 3.99827 0.839375 5.49707C0.766827 6.78978 0.778528 8.07078 0.778528 9.36115C0.778528 10.6515 0.766827 11.9349 0.839375 13.2252C0.911922 14.724 1.2536 16.0542 2.34884 17.1502C3.44642 18.2486 4.77334 18.5881 6.2711 18.6607C7.56292 18.7333 8.84304 18.7216 10.1325 18.7216C11.4243 18.7216 12.7045 18.7333 13.9939 18.6607C15.4917 18.5881 16.821 18.2462 17.9162 17.1502C19.0138 16.0519 19.3531 14.724 19.4257 13.2252C19.5005 11.9349 19.4865 10.6539 19.4865 9.36115ZM10.1302 14.1643C7.47399 14.1643 5.33032 12.0192 5.33032 9.36115C5.33032 6.70313 7.47399 4.55798 10.1302 4.55798C12.7864 4.55798 14.93 6.70313 14.93 9.36115C14.93 12.0192 12.7864 14.1643 10.1302 14.1643ZM15.1266 5.48302C14.5064 5.48302 14.0056 4.98185 14.0056 4.36126C14.0056 3.74066 14.5064 3.2395 15.1266 3.2395C15.7468 3.2395 16.2476 3.74066 16.2476 4.36126C16.2478 4.50862 16.2189 4.65457 16.1626 4.79076C16.1064 4.92694 16.0238 5.05067 15.9197 5.15487C15.8156 5.25907 15.6919 5.3417 15.5558 5.398C15.4197 5.45431 15.2739 5.4832 15.1266 5.48302Z" fill="#B80505"/>
</svg>
