<svg width="20" height="19" viewBox="0 0 20 19" fill="none" xmlns="http://www.w3.org/2000/svg">
<path d="M10.1857 6.23944C8.46797 6.23944 7.06616 7.64222 7.06616 9.36115C7.06616 11.0801 8.46797 12.4829 10.1857 12.4829C11.9035 12.4829 13.3053 11.0801 13.3053 9.36115C13.3053 7.64222 11.9035 6.23944 10.1857 6.23944ZM19.542 9.36115C19.542 8.06844 19.5537 6.78744 19.4812 5.49707C19.4087 3.99827 19.067 2.66809 17.9717 1.57209C16.8742 0.473754 15.5472 0.134183 14.0495 0.0615852C12.7577 -0.0110128 11.4775 0.000696576 10.1881 0.000696576C8.89624 0.000696576 7.61612 -0.0110128 6.32664 0.0615852C4.82888 0.134183 3.49962 0.476096 2.40438 1.57209C1.3068 2.67043 0.967464 3.99827 0.894917 5.49707C0.822369 6.78978 0.83407 8.07078 0.83407 9.36115C0.83407 10.6515 0.822369 11.9349 0.894917 13.2252C0.967464 14.724 1.30914 16.0542 2.40438 17.1502C3.50196 18.2486 4.82888 18.5881 6.32664 18.6607C7.61846 18.7333 8.89858 18.7216 10.1881 18.7216C11.4799 18.7216 12.76 18.7333 14.0495 18.6607C15.5472 18.5881 16.8765 18.2462 17.9717 17.1502C19.0693 16.0519 19.4087 14.724 19.4812 13.2252C19.5561 11.9349 19.542 10.6539 19.542 9.36115ZM10.1857 14.1643C7.52953 14.1643 5.38586 12.0192 5.38586 9.36115C5.38586 6.70313 7.52953 4.55798 10.1857 4.55798C12.8419 4.55798 14.9856 6.70313 14.9856 9.36115C14.9856 12.0192 12.8419 14.1643 10.1857 14.1643ZM15.1822 5.48302C14.562 5.48302 14.0612 4.98185 14.0612 4.36126C14.0612 3.74066 14.562 3.2395 15.1822 3.2395C15.8023 3.2395 16.3031 3.74066 16.3031 4.36126C16.3033 4.50862 16.2745 4.65457 16.2182 4.79076C16.1619 4.92694 16.0794 5.05067 15.9752 5.15487C15.8711 5.25907 15.7474 5.3417 15.6114 5.398C15.4753 5.45431 15.3294 5.4832 15.1822 5.48302Z" fill="#F9F9F9"/>
</svg>
