<svg width="60" height="60" viewBox="0 0 60 60" fill="none" xmlns="http://www.w3.org/2000/svg">
<path fill-rule="evenodd" clip-rule="evenodd" d="M11.8683 0.82468C17.773 -0.618243 25.5387 -0.807627 30.8488 5.66749C31.0201 5.87725 31.156 6.12619 31.2485 6.40009C31.341 6.67398 31.3884 6.96745 31.3879 7.26372V56.8642C31.3886 57.3107 31.2807 57.7474 31.0778 58.1189C30.875 58.4904 30.5864 58.78 30.2486 58.951C29.9108 59.1219 29.5391 59.1666 29.1805 59.0793C28.8219 58.9919 28.4926 58.7766 28.2344 58.4604C25.1214 54.6547 20.4243 53.6853 15.4207 54.312C10.4577 54.9433 5.59813 57.0942 2.67351 58.8798C2.39202 59.052 2.07914 59.1335 1.76459 59.1165C1.45005 59.0995 1.14429 58.9845 0.876383 58.7825C0.608476 58.5805 0.387318 58.2983 0.233928 57.9625C0.0805375 57.6267 1.05653e-05 57.2487 0 56.8642L0 7.26372C1.14966e-05 6.84537 0.0953467 6.43528 0.27534 6.07931C0.455334 5.72335 0.712886 5.43556 1.01918 5.24814L1.84635 7.26372L1.01918 5.24814L1.02657 5.24363L1.04134 5.23461L1.08935 5.20756C1.35703 5.04476 1.62791 4.8899 1.90174 4.74312C5.09773 2.99541 8.44119 1.6814 11.872 0.82468H11.8683ZM3.6927 8.70665V53.3831C6.81672 51.8365 10.8713 50.353 15.0441 49.8299C19.2648 49.2979 23.8585 49.7262 27.6952 52.3551V8.24671C23.7699 4.05773 17.9797 3.93598 12.5921 5.25265C9.534 6.01665 6.55085 7.17446 3.6927 8.70665Z" fill="#B80505"/>
<path fill-rule="evenodd" clip-rule="evenodd" d="M47.2149 0.82468C41.314 -0.618243 33.5445 -0.807627 28.2344 5.66749C28.0631 5.87725 27.9273 6.12619 27.8348 6.40009C27.7423 6.67398 27.6949 6.96745 27.6953 7.26372V56.8642C27.6947 57.3107 27.8026 57.7474 28.0054 58.1189C28.2083 58.4904 28.4969 58.78 28.8346 58.951C29.1724 59.1219 29.5442 59.1666 29.9028 59.0793C30.2614 58.9919 30.5907 58.7766 30.8489 58.4604C33.9618 54.6547 38.6589 53.6853 43.6625 54.312C48.6255 54.9433 53.4851 57.0942 56.4097 58.8798C56.6912 59.052 57.0041 59.1335 57.3187 59.1165C57.6332 59.0995 57.939 58.9845 58.2069 58.7825C58.4748 58.5805 58.6959 58.2983 58.8493 57.9625C59.0027 57.6267 59.0832 57.2487 59.0833 56.8642V7.26372C59.0832 6.84537 58.9879 6.43528 58.8079 6.07931C58.6279 5.72335 58.3704 5.43556 58.0641 5.24814L57.2369 7.26372L58.0641 5.24814L58.0567 5.24363L58.0419 5.23461L57.9939 5.20756L57.8203 5.10385C56.8516 4.55151 55.8675 4.04017 54.8699 3.57074C52.3853 2.39681 49.8247 1.47826 47.2149 0.82468ZM55.3906 8.70665V53.3831C52.2665 51.8365 48.2119 50.353 44.0392 49.8299C39.8184 49.2979 35.2247 49.7262 31.388 52.3551V8.24671C35.3134 4.05773 41.1035 3.93598 46.4911 5.25265C49.5493 6.01659 52.5324 7.17439 55.3906 8.70665Z" fill="#B80505"/>
</svg>
