<svg width="50" height="60" viewBox="0 0 50 60" fill="none" xmlns="http://www.w3.org/2000/svg">
<path d="M36.9271 29.5926V11.8742C36.9271 5.32731 31.4342 0 24.6827 0C24.4661 0.00124886 24.2504 0.0260152 24.0396 0.0738263C20.88 0.22083 17.9002 1.52777 15.7168 3.72425C13.5333 5.92072 12.3133 8.83863 12.3091 11.8742V29.5926C12.3091 36.107 17.8297 41.4048 24.6181 41.4048C31.4065 41.4048 36.9271 36.107 36.9271 29.5926ZM18.4636 29.5926V11.8742C18.4636 8.61701 21.2239 5.96812 24.6181 5.96812C24.7864 5.96818 24.9543 5.95335 25.1197 5.92383C28.2739 6.14531 30.7726 8.72923 30.7726 11.8742V29.5926C30.7726 32.8498 28.0123 35.4987 24.6181 35.4987C21.2239 35.4987 18.4636 32.8498 18.4636 29.5926Z" fill="#B80505"/>
<path d="M6.15451 29.5923H0C0 41.6172 9.41948 51.5514 21.5408 53.0131V59.123H27.6953V53.0131C39.8166 51.5514 49.2361 41.6202 49.2361 29.5923H43.0816C43.0816 39.364 34.8007 47.3107 24.6181 47.3107C14.4354 47.3107 6.15451 39.364 6.15451 29.5923Z" fill="#B80505"/>
</svg>
