<svg width="24" height="20" viewBox="0 0 24 20" fill="none" xmlns="http://www.w3.org/2000/svg">
<path d="M23.6888 2.34103C22.8197 2.72585 21.874 3.00281 20.8998 3.11068C21.9112 2.4939 22.6686 1.51948 23.0299 0.37026C22.0808 0.949797 21.0411 1.35618 19.9568 1.57138C19.5037 1.0741 18.9556 0.677944 18.3467 0.407598C17.7379 0.137252 17.0813 -0.00149202 16.4179 1.20998e-05C13.7339 1.20998e-05 11.5754 2.23316 11.5754 4.97358C11.5754 5.3584 11.6208 5.74323 11.6947 6.11347C7.6758 5.89774 4.09147 3.92697 1.70854 0.909597C1.27434 1.67084 1.04681 2.5376 1.04961 3.4197C1.04961 5.14558 1.90451 6.66739 3.20816 7.5624C2.4399 7.53134 1.68963 7.31459 1.01837 6.92977V6.99099C1.01837 9.4078 2.68273 11.4106 4.90092 11.8713C4.48443 11.9823 4.05598 12.0391 3.62567 12.0404C3.31041 12.0404 3.01219 12.0083 2.71113 11.9646C3.32461 13.9353 5.1111 15.3668 7.23841 15.4134C5.57405 16.7515 3.48934 17.5387 1.2257 17.5387C0.819556 17.5387 0.444649 17.5241 0.055542 17.4775C2.20273 18.8914 4.75039 19.7077 7.49402 19.7077C16.4009 19.7077 21.2747 12.1336 21.2747 5.55956C21.2747 5.34382 21.2747 5.12809 21.2605 4.91235C22.2034 4.20393 23.0299 3.32641 23.6888 2.34103Z" fill="#F9F9F9"/>
</svg>
