<svg width="24" height="20" viewBox="0 0 24 20" fill="none" xmlns="http://www.w3.org/2000/svg">
<path d="M23.6333 2.34103C22.7642 2.72585 21.8184 3.00281 20.8442 3.11068C21.8557 2.4939 22.6131 1.51948 22.9744 0.37026C22.0253 0.949797 20.9855 1.35618 19.9013 1.57138C19.4481 1.0741 18.9 0.677944 18.2912 0.407598C17.6823 0.137252 17.0258 -0.00149202 16.3624 1.20998e-05C13.6784 1.20998e-05 11.5198 2.23316 11.5198 4.97358C11.5198 5.3584 11.5653 5.74323 11.6391 6.11347C7.62026 5.89774 4.03592 3.92697 1.653 0.909597C1.2188 1.67084 0.991268 2.5376 0.99407 3.4197C0.99407 5.14558 1.84897 6.66739 3.15262 7.5624C2.38436 7.53134 1.63409 7.31459 0.962828 6.92977V6.99099C0.962828 9.4078 2.62718 11.4106 4.84538 11.8713C4.42889 11.9823 4.00044 12.0391 3.57013 12.0404C3.25487 12.0404 2.95665 12.0083 2.65559 11.9646C3.26907 13.9353 5.05556 15.3668 7.18286 15.4134C5.51851 16.7515 3.4338 17.5387 1.17016 17.5387C0.764014 17.5387 0.389107 17.5241 0 17.4775C2.14719 18.8914 4.69485 19.7077 7.43848 19.7077C16.3453 19.7077 21.2191 12.1336 21.2191 5.55956C21.2191 5.34382 21.2191 5.12809 21.2049 4.91235C22.1479 4.20393 22.9744 3.32641 23.6333 2.34103Z" fill="#B80505"/>
</svg>
